<mxfile host="app.diagrams.net" agent="Mozilla/5.0 (Windows NT 10.0; Win64; x64) AppleWebKit/537.36 (KHTML, like Gecko) Chrome/138.0.0.0 Safari/537.36 SberBrowser/30.0.0.0" version="28.1.1">
  <diagram name="Страница — 1" id="-YXRId_sDvUEEtOQdQ2V">
    <mxGraphModel dx="1574" dy="168" grid="1" gridSize="10" guides="1" tooltips="1" connect="1" arrows="1" fold="1" page="1" pageScale="1" pageWidth="1169" pageHeight="827" math="0" shadow="0">
      <root>
        <mxCell id="0" />
        <mxCell id="1" parent="0" />
        <mxCell id="Iy1BZUjgXlwGKle0z2-z-2" value="Курьерская доставка" style="text;html=1;align=center;verticalAlign=middle;whiteSpace=wrap;rounded=0;fontSize=23;" vertex="1" parent="1">
          <mxGeometry x="392" y="850" width="270" height="30" as="geometry" />
        </mxCell>
        <mxCell id="Iy1BZUjgXlwGKle0z2-z-3" value="&lt;font style=&quot;font-size: 16px;&quot;&gt;Нотация Чена&lt;/font&gt;" style="text;html=1;align=center;verticalAlign=middle;whiteSpace=wrap;rounded=0;fontSize=18;" vertex="1" parent="1">
          <mxGeometry x="30" y="850" width="130" height="30" as="geometry" />
        </mxCell>
        <mxCell id="Iy1BZUjgXlwGKle0z2-z-4" value="&lt;font style=&quot;font-size: 16px;&quot;&gt;Нотация Мартина&lt;/font&gt;" style="text;html=1;align=center;verticalAlign=middle;whiteSpace=wrap;rounded=0;fontSize=18;" vertex="1" parent="1">
          <mxGeometry x="730" y="850" width="190" height="30" as="geometry" />
        </mxCell>
        <mxCell id="Iy1BZUjgXlwGKle0z2-z-6" value="" style="edgeStyle=orthogonalEdgeStyle;rounded=0;orthogonalLoop=1;jettySize=auto;html=1;endArrow=none;endFill=0;" edge="1" parent="1" source="Iy1BZUjgXlwGKle0z2-z-7" target="Iy1BZUjgXlwGKle0z2-z-80">
          <mxGeometry relative="1" as="geometry">
            <Array as="points">
              <mxPoint x="180" y="1210" />
            </Array>
            <mxPoint x="220" y="1255" as="targetPoint" />
          </mxGeometry>
        </mxCell>
        <mxCell id="Iy1BZUjgXlwGKle0z2-z-7" value="Id" style="ellipse;whiteSpace=wrap;html=1;fontStyle=4" vertex="1" parent="1">
          <mxGeometry x="30" y="1190" width="120" height="40" as="geometry" />
        </mxCell>
        <mxCell id="Iy1BZUjgXlwGKle0z2-z-8" value="" style="edgeStyle=orthogonalEdgeStyle;rounded=0;orthogonalLoop=1;jettySize=auto;html=1;endArrow=none;endFill=0;" edge="1" parent="1" source="Iy1BZUjgXlwGKle0z2-z-9" target="Iy1BZUjgXlwGKle0z2-z-80">
          <mxGeometry relative="1" as="geometry">
            <Array as="points">
              <mxPoint x="180" y="1240" />
            </Array>
            <mxPoint x="220" y="1255" as="targetPoint" />
          </mxGeometry>
        </mxCell>
        <mxCell id="Iy1BZUjgXlwGKle0z2-z-9" value="ФИО" style="ellipse;whiteSpace=wrap;html=1;fontStyle=0" vertex="1" parent="1">
          <mxGeometry x="30" y="1220" width="120" height="40" as="geometry" />
        </mxCell>
        <mxCell id="Iy1BZUjgXlwGKle0z2-z-10" value="" style="edgeStyle=orthogonalEdgeStyle;rounded=0;orthogonalLoop=1;jettySize=auto;html=1;endArrow=none;endFill=0;" edge="1" parent="1" source="Iy1BZUjgXlwGKle0z2-z-11" target="Iy1BZUjgXlwGKle0z2-z-80">
          <mxGeometry relative="1" as="geometry">
            <Array as="points">
              <mxPoint x="180" y="1270" />
            </Array>
            <mxPoint x="220" y="1255" as="targetPoint" />
          </mxGeometry>
        </mxCell>
        <mxCell id="Iy1BZUjgXlwGKle0z2-z-11" value="Телефон" style="ellipse;whiteSpace=wrap;html=1;fontStyle=0" vertex="1" parent="1">
          <mxGeometry x="30" y="1250" width="120" height="40" as="geometry" />
        </mxCell>
        <mxCell id="Iy1BZUjgXlwGKle0z2-z-12" value="" style="edgeStyle=orthogonalEdgeStyle;rounded=0;orthogonalLoop=1;jettySize=auto;html=1;endArrow=none;endFill=0;" edge="1" parent="1" source="Iy1BZUjgXlwGKle0z2-z-13" target="Iy1BZUjgXlwGKle0z2-z-80">
          <mxGeometry relative="1" as="geometry">
            <Array as="points">
              <mxPoint x="180" y="1300" />
            </Array>
            <mxPoint x="220" y="1255" as="targetPoint" />
          </mxGeometry>
        </mxCell>
        <mxCell id="Iy1BZUjgXlwGKle0z2-z-13" value="Паспорт" style="ellipse;whiteSpace=wrap;html=1;fontStyle=0" vertex="1" parent="1">
          <mxGeometry x="30" y="1280" width="120" height="40" as="geometry" />
        </mxCell>
        <mxCell id="Iy1BZUjgXlwGKle0z2-z-21" value="Id" style="ellipse;whiteSpace=wrap;html=1;fontStyle=4" vertex="1" parent="1">
          <mxGeometry x="770" y="1340" width="120" height="40" as="geometry" />
        </mxCell>
        <mxCell id="Iy1BZUjgXlwGKle0z2-z-22" value="Наименование" style="ellipse;whiteSpace=wrap;html=1;fontStyle=0" vertex="1" parent="1">
          <mxGeometry x="770" y="1370" width="120" height="40" as="geometry" />
        </mxCell>
        <mxCell id="Iy1BZUjgXlwGKle0z2-z-23" value="" style="edgeStyle=orthogonalEdgeStyle;rounded=0;orthogonalLoop=1;jettySize=auto;html=1;endArrow=none;endFill=0;" edge="1" parent="1" source="Iy1BZUjgXlwGKle0z2-z-22">
          <mxGeometry relative="1" as="geometry">
            <Array as="points">
              <mxPoint x="720" y="1390" />
              <mxPoint x="720" y="1375" />
            </Array>
            <mxPoint x="690" y="1375" as="targetPoint" />
          </mxGeometry>
        </mxCell>
        <mxCell id="Iy1BZUjgXlwGKle0z2-z-24" value="" style="rounded=0;orthogonalLoop=1;jettySize=auto;html=1;endArrow=none;endFill=0;edgeStyle=orthogonalEdgeStyle;" edge="1" parent="1" source="Iy1BZUjgXlwGKle0z2-z-21">
          <mxGeometry relative="1" as="geometry">
            <mxPoint x="610" y="1330" as="sourcePoint" />
            <mxPoint x="690" y="1375" as="targetPoint" />
            <Array as="points">
              <mxPoint x="720" y="1360" />
              <mxPoint x="720" y="1375" />
            </Array>
          </mxGeometry>
        </mxCell>
        <mxCell id="Iy1BZUjgXlwGKle0z2-z-27" value="Id" style="ellipse;whiteSpace=wrap;html=1;fontStyle=4" vertex="1" parent="1">
          <mxGeometry x="430" y="910" width="120" height="40" as="geometry" />
        </mxCell>
        <mxCell id="Iy1BZUjgXlwGKle0z2-z-28" value="Статус" style="ellipse;whiteSpace=wrap;html=1;fontStyle=0" vertex="1" parent="1">
          <mxGeometry x="430" y="940" width="120" height="40" as="geometry" />
        </mxCell>
        <mxCell id="Iy1BZUjgXlwGKle0z2-z-29" value="" style="edgeStyle=orthogonalEdgeStyle;rounded=0;orthogonalLoop=1;jettySize=auto;html=1;endArrow=none;endFill=0;" edge="1" parent="1" source="Iy1BZUjgXlwGKle0z2-z-28" target="Iy1BZUjgXlwGKle0z2-z-107">
          <mxGeometry relative="1" as="geometry">
            <Array as="points">
              <mxPoint x="380" y="960" />
              <mxPoint x="380" y="945" />
            </Array>
            <mxPoint x="430" y="960" as="sourcePoint" />
            <mxPoint x="350.0000000000002" y="944.9999999999998" as="targetPoint" />
          </mxGeometry>
        </mxCell>
        <mxCell id="Iy1BZUjgXlwGKle0z2-z-30" value="" style="rounded=0;orthogonalLoop=1;jettySize=auto;html=1;endArrow=none;endFill=0;edgeStyle=orthogonalEdgeStyle;entryX=0.535;entryY=-0.023;entryDx=0;entryDy=0;entryPerimeter=0;" edge="1" parent="1" source="Iy1BZUjgXlwGKle0z2-z-27" target="Iy1BZUjgXlwGKle0z2-z-78">
          <mxGeometry relative="1" as="geometry">
            <mxPoint x="270" y="900" as="sourcePoint" />
            <mxPoint x="350.0000000000002" y="944.9999999999998" as="targetPoint" />
            <Array as="points">
              <mxPoint x="380" y="930" />
              <mxPoint x="380" y="945" />
              <mxPoint x="277" y="945" />
            </Array>
          </mxGeometry>
        </mxCell>
        <mxCell id="Iy1BZUjgXlwGKle0z2-z-78" value="Доставка" style="rounded=1;whiteSpace=wrap;html=1;" vertex="1" parent="1">
          <mxGeometry x="197" y="920" width="150" height="50" as="geometry" />
        </mxCell>
        <mxCell id="Iy1BZUjgXlwGKle0z2-z-80" value="Клиент" style="rounded=1;whiteSpace=wrap;html=1;" vertex="1" parent="1">
          <mxGeometry x="37" y="1130" width="150" height="50" as="geometry" />
        </mxCell>
        <mxCell id="Iy1BZUjgXlwGKle0z2-z-81" value="Филиал" style="rounded=1;whiteSpace=wrap;html=1;" vertex="1" parent="1">
          <mxGeometry x="540" y="1350" width="150" height="50" as="geometry" />
        </mxCell>
        <mxCell id="Iy1BZUjgXlwGKle0z2-z-84" value="Отправляет" style="rhombus;whiteSpace=wrap;html=1;" vertex="1" parent="1">
          <mxGeometry x="37" y="1000" width="150" height="60" as="geometry" />
        </mxCell>
        <mxCell id="Iy1BZUjgXlwGKle0z2-z-85" value="Получает" style="rhombus;whiteSpace=wrap;html=1;" vertex="1" parent="1">
          <mxGeometry x="140" y="1070" width="150" height="60" as="geometry" />
        </mxCell>
        <mxCell id="Iy1BZUjgXlwGKle0z2-z-86" value="Доставляется из" style="rhombus;whiteSpace=wrap;html=1;" vertex="1" parent="1">
          <mxGeometry x="250" y="1020" width="150" height="60" as="geometry" />
        </mxCell>
        <mxCell id="Iy1BZUjgXlwGKle0z2-z-87" value="1&lt;span style=&quot;color: rgba(0, 0, 0, 0); font-family: monospace; font-size: 0px; text-align: start; background-color: rgb(236, 236, 236);&quot;&gt;%3CmxGraphModel%3E%3Croot%3E%3CmxCell%20id%3D%220%22%2F%3E%3CmxCell%20id%3D%221%22%20parent%3D%220%22%2F%3E%3CmxCell%20id%3D%222%22%20value%3D%22N%26lt%3Bspan%20style%3D%26quot%3Bcolor%3A%20rgba(0%2C%200%2C%200%2C%200)%3B%20font-family%3A%20monospace%3B%20font-size%3A%200px%3B%20text-align%3A%20start%3B%20background-color%3A%20rgb(236%2C%20236%2C%20236)%3B%26quot%3B%26gt%3B%253CmxGraphModel%253E%253Croot%253E%253CmxCell%2520id%253D%25220%2522%252F%253E%253CmxCell%2520id%253D%25221%2522%2520parent%253D%25220%2522%252F%253E%253CmxCell%2520id%253D%25222%2522%2520value%253D%2522%25D0%259B%25D0%25B5%25D0%25BA%25D0%25B0%25D1%2580%25D1%2581%25D1%2582%25D0%25B2%25D0%25BE%2522%2520style%253D%2522rounded%253D1%253BwhiteSpace%253Dwrap%253Bhtml%253D1%253B%2522%2520vertex%253D%25221%2522%2520parent%253D%25221%2522%253E%253CmxGeometry%2520x%253D%2522180%2522%2520y%253D%2522280%2522%2520width%253D%2522150%2522%2520height%253D%252250%2522%2520as%253D%2522geometry%2522%252F%253E%253C%252FmxCell%253E%253C%252Froot%253E%253C%252FmxGraphModel%253E%26lt%3B%2Fspan%26gt%3B%26lt%3Bspan%20style%3D%26quot%3Bcolor%3A%20rgba(0%2C%200%2C%200%2C%200)%3B%20font-family%3A%20monospace%3B%20font-size%3A%200px%3B%20text-align%3A%20start%3B%20background-color%3A%20rgb(236%2C%20236%2C%20236)%3B%26quot%3B%26gt%3B%253CmxGraphModel%253E%253Croot%253E%253CmxCell%2520id%253D%25220%2522%252F%253E%253CmxCell%2520id%253D%25221%2522%2520parent%253D%25220%2522%252F%253E%253CmxCell%2520id%253D%25222%2522%2520value%253D%2522%25D0%259B%25D0%25B5%25D0%25BA%25D0%25B0%25D1%2580%25D1%2581%25D1%2582%25D0%25B2%25D0%25BE%2522%2520style%253D%2522rounded%253D1%253BwhiteSpace%253Dwrap%253Bhtml%253D1%253B%2522%2520vertex%253D%25221%2522%2520parent%253D%25221%2522%253E%253CmxGeometry%2520x%253D%2522180%2522%2520y%253D%2522280%2522%2520width%253D%2522150%2522%2520height%253D%252250%2522%2520as%253D%2522geometry%2522%252F%253E%253C%252FmxCell%253E%253C%252Froot%253E%253C%252FmxGraphModel%253E%26lt%3B%2Fspan%26gt%3B%26lt%3Bspan%20style%3D%26quot%3Bcolor%3A%20rgba(0%2C%200%2C%200%2C%200)%3B%20font-family%3A%20monospace%3B%20font-size%3A%200px%3B%20text-align%3A%20start%3B%20background-color%3A%20rgb(236%2C%20236%2C%20236)%3B%26quot%3B%26gt%3B%253CmxGraphModel%253E%253Croot%253E%253CmxCell%2520id%253D%25220%2522%252F%253E%253CmxCell%2520id%253D%25221%2522%2520parent%253D%25220%2522%252F%253E%253CmxCell%2520id%253D%25222%2522%2520value%253D%2522%25D0%259B%25D0%25B5%25D0%25BA%25D0%25B0%25D1%2580%25D1%2581%25D1%2582%25D0%25B2%25D0%25BE%2522%2520style%253D%2522rounded%253D1%253BwhiteSpace%253Dwrap%253Bhtml%253D1%253B%2522%2520vertex%253D%25221%2522%2520parent%253D%25221%2522%253E%253CmxGeometry%2520x%253D%2522180%2522%2520y%253D%2522280%2522%2520width%253D%2522150%2522%2520height%253D%252250%2522%2520as%253D%2522geometry%2522%252F%253E%253C%252FmxCell%253E%253C%252Froot%253E%253C%252FmxGraphModel%253E%26lt%3B%2Fspan%26gt%3B%22%20style%3D%22edgeStyle%3DorthogonalEdgeStyle%3Brounded%3D0%3BorthogonalLoop%3D1%3BjettySize%3Dauto%3Bhtml%3D1%3BendArrow%3Dnone%3BendFill%3D0%3B%22%20edge%3D%221%22%20parent%3D%221%22%3E%3CmxGeometry%20relative%3D%221%22%20as%3D%22geometry%22%3E%3CmxPoint%20x%3D%22255%22%20y%3D%22460%22%20as%3D%22sourcePoint%22%2F%3E%3CmxPoint%20x%3D%22255%22%20y%3D%22330%22%20as%3D%22targetPoint%22%2F%3E%3C%2FmxGeometry%3E%3C%2FmxCell%3E%3C%2Froot%3E%3C%2FmxGraphModel%3E&lt;/span&gt;" style="edgeStyle=orthogonalEdgeStyle;rounded=0;orthogonalLoop=1;jettySize=auto;html=1;endArrow=none;endFill=0;" edge="1" parent="1" source="Iy1BZUjgXlwGKle0z2-z-84" target="Iy1BZUjgXlwGKle0z2-z-80">
          <mxGeometry relative="1" as="geometry">
            <mxPoint x="310" y="690" as="sourcePoint" />
            <mxPoint x="310" y="720" as="targetPoint" />
            <Array as="points">
              <mxPoint x="112" y="1150" />
              <mxPoint x="170" y="1150" />
            </Array>
          </mxGeometry>
        </mxCell>
        <mxCell id="Iy1BZUjgXlwGKle0z2-z-88" value="1&lt;span style=&quot;color: rgba(0, 0, 0, 0); font-family: monospace; font-size: 0px; text-align: start; background-color: rgb(236, 236, 236);&quot;&gt;%3CmxGraphModel%3E%3Croot%3E%3CmxCell%20id%3D%220%22%2F%3E%3CmxCell%20id%3D%221%22%20parent%3D%220%22%2F%3E%3CmxCell%20id%3D%222%22%20value%3D%22N%26lt%3Bspan%20style%3D%26quot%3Bcolor%3A%20rgba(0%2C%200%2C%200%2C%200)%3B%20font-family%3A%20monospace%3B%20font-size%3A%200px%3B%20text-align%3A%20start%3B%20background-color%3A%20rgb(236%2C%20236%2C%20236)%3B%26quot%3B%26gt%3B%253CmxGraphModel%253E%253Croot%253E%253CmxCell%2520id%253D%25220%2522%252F%253E%253CmxCell%2520id%253D%25221%2522%2520parent%253D%25220%2522%252F%253E%253CmxCell%2520id%253D%25222%2522%2520value%253D%2522%25D0%259B%25D0%25B5%25D0%25BA%25D0%25B0%25D1%2580%25D1%2581%25D1%2582%25D0%25B2%25D0%25BE%2522%2520style%253D%2522rounded%253D1%253BwhiteSpace%253Dwrap%253Bhtml%253D1%253B%2522%2520vertex%253D%25221%2522%2520parent%253D%25221%2522%253E%253CmxGeometry%2520x%253D%2522180%2522%2520y%253D%2522280%2522%2520width%253D%2522150%2522%2520height%253D%252250%2522%2520as%253D%2522geometry%2522%252F%253E%253C%252FmxCell%253E%253C%252Froot%253E%253C%252FmxGraphModel%253E%26lt%3B%2Fspan%26gt%3B%26lt%3Bspan%20style%3D%26quot%3Bcolor%3A%20rgba(0%2C%200%2C%200%2C%200)%3B%20font-family%3A%20monospace%3B%20font-size%3A%200px%3B%20text-align%3A%20start%3B%20background-color%3A%20rgb(236%2C%20236%2C%20236)%3B%26quot%3B%26gt%3B%253CmxGraphModel%253E%253Croot%253E%253CmxCell%2520id%253D%25220%2522%252F%253E%253CmxCell%2520id%253D%25221%2522%2520parent%253D%25220%2522%252F%253E%253CmxCell%2520id%253D%25222%2522%2520value%253D%2522%25D0%259B%25D0%25B5%25D0%25BA%25D0%25B0%25D1%2580%25D1%2581%25D1%2582%25D0%25B2%25D0%25BE%2522%2520style%253D%2522rounded%253D1%253BwhiteSpace%253Dwrap%253Bhtml%253D1%253B%2522%2520vertex%253D%25221%2522%2520parent%253D%25221%2522%253E%253CmxGeometry%2520x%253D%2522180%2522%2520y%253D%2522280%2522%2520width%253D%2522150%2522%2520height%253D%252250%2522%2520as%253D%2522geometry%2522%252F%253E%253C%252FmxCell%253E%253C%252Froot%253E%253C%252FmxGraphModel%253E%26lt%3B%2Fspan%26gt%3B%26lt%3Bspan%20style%3D%26quot%3Bcolor%3A%20rgba(0%2C%200%2C%200%2C%200)%3B%20font-family%3A%20monospace%3B%20font-size%3A%200px%3B%20text-align%3A%20start%3B%20background-color%3A%20rgb(236%2C%20236%2C%20236)%3B%26quot%3B%26gt%3B%253CmxGraphModel%253E%253Croot%253E%253CmxCell%2520id%253D%25220%2522%252F%253E%253CmxCell%2520id%253D%25221%2522%2520parent%253D%25220%2522%252F%253E%253CmxCell%2520id%253D%25222%2522%2520value%253D%2522%25D0%259B%25D0%25B5%25D0%25BA%25D0%25B0%25D1%2580%25D1%2581%25D1%2582%25D0%25B2%25D0%25BE%2522%2520style%253D%2522rounded%253D1%253BwhiteSpace%253Dwrap%253Bhtml%253D1%253B%2522%2520vertex%253D%25221%2522%2520parent%253D%25221%2522%253E%253CmxGeometry%2520x%253D%2522180%2522%2520y%253D%2522280%2522%2520width%253D%2522150%2522%2520height%253D%252250%2522%2520as%253D%2522geometry%2522%252F%253E%253C%252FmxCell%253E%253C%252Froot%253E%253C%252FmxGraphModel%253E%26lt%3B%2Fspan%26gt%3B%22%20style%3D%22edgeStyle%3DorthogonalEdgeStyle%3Brounded%3D0%3BorthogonalLoop%3D1%3BjettySize%3Dauto%3Bhtml%3D1%3BendArrow%3Dnone%3BendFill%3D0%3B%22%20edge%3D%221%22%20parent%3D%221%22%3E%3CmxGeometry%20relative%3D%221%22%20as%3D%22geometry%22%3E%3CmxPoint%20x%3D%22255%22%20y%3D%22460%22%20as%3D%22sourcePoint%22%2F%3E%3CmxPoint%20x%3D%22255%22%20y%3D%22330%22%20as%3D%22targetPoint%22%2F%3E%3C%2FmxGeometry%3E%3C%2FmxCell%3E%3C%2Froot%3E%3C%2FmxGraphModel%3E&lt;/span&gt;" style="edgeStyle=orthogonalEdgeStyle;rounded=0;orthogonalLoop=1;jettySize=auto;html=1;endArrow=none;endFill=0;" edge="1" parent="1" source="Iy1BZUjgXlwGKle0z2-z-85" target="Iy1BZUjgXlwGKle0z2-z-80">
          <mxGeometry x="0.4583" relative="1" as="geometry">
            <mxPoint x="120" y="1100" as="sourcePoint" />
            <mxPoint x="175" y="1210" as="targetPoint" />
            <Array as="points">
              <mxPoint x="215" y="1150" />
              <mxPoint x="170" y="1150" />
            </Array>
            <mxPoint as="offset" />
          </mxGeometry>
        </mxCell>
        <mxCell id="Iy1BZUjgXlwGKle0z2-z-89" value="N" style="edgeStyle=orthogonalEdgeStyle;rounded=0;orthogonalLoop=1;jettySize=auto;html=1;endArrow=none;endFill=0;" edge="1" parent="1" source="Iy1BZUjgXlwGKle0z2-z-84" target="Iy1BZUjgXlwGKle0z2-z-78">
          <mxGeometry relative="1" as="geometry">
            <mxPoint x="110" y="1090" as="sourcePoint" />
            <mxPoint x="168" y="1200" as="targetPoint" />
            <Array as="points">
              <mxPoint x="110" y="980" />
              <mxPoint x="168" y="980" />
              <mxPoint x="168" y="945" />
            </Array>
          </mxGeometry>
        </mxCell>
        <mxCell id="Iy1BZUjgXlwGKle0z2-z-90" value="N" style="edgeStyle=orthogonalEdgeStyle;rounded=0;orthogonalLoop=1;jettySize=auto;html=1;endArrow=none;endFill=0;" edge="1" parent="1" source="Iy1BZUjgXlwGKle0z2-z-85" target="Iy1BZUjgXlwGKle0z2-z-78">
          <mxGeometry relative="1" as="geometry">
            <mxPoint x="150" y="1066" as="sourcePoint" />
            <mxPoint x="237" y="1010" as="targetPoint" />
            <Array as="points">
              <mxPoint x="215" y="980" />
              <mxPoint x="215" y="980" />
            </Array>
          </mxGeometry>
        </mxCell>
        <mxCell id="Iy1BZUjgXlwGKle0z2-z-91" value="Доставляется в" style="rhombus;whiteSpace=wrap;html=1;" vertex="1" parent="1">
          <mxGeometry x="370" y="1070" width="150" height="60" as="geometry" />
        </mxCell>
        <mxCell id="Iy1BZUjgXlwGKle0z2-z-92" value="N" style="edgeStyle=orthogonalEdgeStyle;rounded=0;orthogonalLoop=1;jettySize=auto;html=1;endArrow=none;endFill=0;" edge="1" parent="1" source="Iy1BZUjgXlwGKle0z2-z-86" target="Iy1BZUjgXlwGKle0z2-z-78">
          <mxGeometry relative="1" as="geometry">
            <mxPoint x="290" y="1040" as="sourcePoint" />
            <mxPoint x="290" y="940" as="targetPoint" />
            <Array as="points" />
          </mxGeometry>
        </mxCell>
        <mxCell id="Iy1BZUjgXlwGKle0z2-z-93" value="N" style="edgeStyle=orthogonalEdgeStyle;rounded=0;orthogonalLoop=1;jettySize=auto;html=1;endArrow=none;endFill=0;" edge="1" parent="1" source="Iy1BZUjgXlwGKle0z2-z-91" target="Iy1BZUjgXlwGKle0z2-z-78">
          <mxGeometry relative="1" as="geometry">
            <mxPoint x="403" y="1080" as="sourcePoint" />
            <mxPoint x="350" y="1030" as="targetPoint" />
            <Array as="points">
              <mxPoint x="445" y="1010" />
              <mxPoint x="340" y="1010" />
            </Array>
          </mxGeometry>
        </mxCell>
        <mxCell id="Iy1BZUjgXlwGKle0z2-z-94" value="1&lt;span style=&quot;color: rgba(0, 0, 0, 0); font-family: monospace; font-size: 0px; text-align: start; background-color: rgb(236, 236, 236);&quot;&gt;%3CmxGraphModel%3E%3Croot%3E%3CmxCell%20id%3D%220%22%2F%3E%3CmxCell%20id%3D%221%22%20parent%3D%220%22%2F%3E%3CmxCell%20id%3D%222%22%20value%3D%22N%26lt%3Bspan%20style%3D%26quot%3Bcolor%3A%20rgba(0%2C%200%2C%200%2C%200)%3B%20font-family%3A%20monospace%3B%20font-size%3A%200px%3B%20text-align%3A%20start%3B%20background-color%3A%20rgb(236%2C%20236%2C%20236)%3B%26quot%3B%26gt%3B%253CmxGraphModel%253E%253Croot%253E%253CmxCell%2520id%253D%25220%2522%252F%253E%253CmxCell%2520id%253D%25221%2522%2520parent%253D%25220%2522%252F%253E%253CmxCell%2520id%253D%25222%2522%2520value%253D%2522%25D0%259B%25D0%25B5%25D0%25BA%25D0%25B0%25D1%2580%25D1%2581%25D1%2582%25D0%25B2%25D0%25BE%2522%2520style%253D%2522rounded%253D1%253BwhiteSpace%253Dwrap%253Bhtml%253D1%253B%2522%2520vertex%253D%25221%2522%2520parent%253D%25221%2522%253E%253CmxGeometry%2520x%253D%2522180%2522%2520y%253D%2522280%2522%2520width%253D%2522150%2522%2520height%253D%252250%2522%2520as%253D%2522geometry%2522%252F%253E%253C%252FmxCell%253E%253C%252Froot%253E%253C%252FmxGraphModel%253E%26lt%3B%2Fspan%26gt%3B%26lt%3Bspan%20style%3D%26quot%3Bcolor%3A%20rgba(0%2C%200%2C%200%2C%200)%3B%20font-family%3A%20monospace%3B%20font-size%3A%200px%3B%20text-align%3A%20start%3B%20background-color%3A%20rgb(236%2C%20236%2C%20236)%3B%26quot%3B%26gt%3B%253CmxGraphModel%253E%253Croot%253E%253CmxCell%2520id%253D%25220%2522%252F%253E%253CmxCell%2520id%253D%25221%2522%2520parent%253D%25220%2522%252F%253E%253CmxCell%2520id%253D%25222%2522%2520value%253D%2522%25D0%259B%25D0%25B5%25D0%25BA%25D0%25B0%25D1%2580%25D1%2581%25D1%2582%25D0%25B2%25D0%25BE%2522%2520style%253D%2522rounded%253D1%253BwhiteSpace%253Dwrap%253Bhtml%253D1%253B%2522%2520vertex%253D%25221%2522%2520parent%253D%25221%2522%253E%253CmxGeometry%2520x%253D%2522180%2522%2520y%253D%2522280%2522%2520width%253D%2522150%2522%2520height%253D%252250%2522%2520as%253D%2522geometry%2522%252F%253E%253C%252FmxCell%253E%253C%252Froot%253E%253C%252FmxGraphModel%253E%26lt%3B%2Fspan%26gt%3B%26lt%3Bspan%20style%3D%26quot%3Bcolor%3A%20rgba(0%2C%200%2C%200%2C%200)%3B%20font-family%3A%20monospace%3B%20font-size%3A%200px%3B%20text-align%3A%20start%3B%20background-color%3A%20rgb(236%2C%20236%2C%20236)%3B%26quot%3B%26gt%3B%253CmxGraphModel%253E%253Croot%253E%253CmxCell%2520id%253D%25220%2522%252F%253E%253CmxCell%2520id%253D%25221%2522%2520parent%253D%25220%2522%252F%253E%253CmxCell%2520id%253D%25222%2522%2520value%253D%2522%25D0%259B%25D0%25B5%25D0%25BA%25D0%25B0%25D1%2580%25D1%2581%25D1%2582%25D0%25B2%25D0%25BE%2522%2520style%253D%2522rounded%253D1%253BwhiteSpace%253Dwrap%253Bhtml%253D1%253B%2522%2520vertex%253D%25221%2522%2520parent%253D%25221%2522%253E%253CmxGeometry%2520x%253D%2522180%2522%2520y%253D%2522280%2522%2520width%253D%2522150%2522%2520height%253D%252250%2522%2520as%253D%2522geometry%2522%252F%253E%253C%252FmxCell%253E%253C%252Froot%253E%253C%252FmxGraphModel%253E%26lt%3B%2Fspan%26gt%3B%22%20style%3D%22edgeStyle%3DorthogonalEdgeStyle%3Brounded%3D0%3BorthogonalLoop%3D1%3BjettySize%3Dauto%3Bhtml%3D1%3BendArrow%3Dnone%3BendFill%3D0%3B%22%20edge%3D%221%22%20parent%3D%221%22%3E%3CmxGeometry%20relative%3D%221%22%20as%3D%22geometry%22%3E%3CmxPoint%20x%3D%22255%22%20y%3D%22460%22%20as%3D%22sourcePoint%22%2F%3E%3CmxPoint%20x%3D%22255%22%20y%3D%22330%22%20as%3D%22targetPoint%22%2F%3E%3C%2FmxGeometry%3E%3C%2FmxCell%3E%3C%2Froot%3E%3C%2FmxGraphModel%3E&lt;/span&gt;" style="edgeStyle=orthogonalEdgeStyle;rounded=0;orthogonalLoop=1;jettySize=auto;html=1;endArrow=none;endFill=0;" edge="1" parent="1" source="Iy1BZUjgXlwGKle0z2-z-91">
          <mxGeometry relative="1" as="geometry">
            <mxPoint x="445" y="1130" as="sourcePoint" />
            <mxPoint x="409.9565217391305" y="1160" as="targetPoint" />
            <Array as="points">
              <mxPoint x="445" y="1140" />
              <mxPoint x="410" y="1140" />
            </Array>
          </mxGeometry>
        </mxCell>
        <mxCell id="Iy1BZUjgXlwGKle0z2-z-95" value="1&lt;span style=&quot;color: rgba(0, 0, 0, 0); font-family: monospace; font-size: 0px; text-align: start; background-color: rgb(236, 236, 236);&quot;&gt;%3CmxGraphModel%3E%3Croot%3E%3CmxCell%20id%3D%220%22%2F%3E%3CmxCell%20id%3D%221%22%20parent%3D%220%22%2F%3E%3CmxCell%20id%3D%222%22%20value%3D%22N%26lt%3Bspan%20style%3D%26quot%3Bcolor%3A%20rgba(0%2C%200%2C%200%2C%200)%3B%20font-family%3A%20monospace%3B%20font-size%3A%200px%3B%20text-align%3A%20start%3B%20background-color%3A%20rgb(236%2C%20236%2C%20236)%3B%26quot%3B%26gt%3B%253CmxGraphModel%253E%253Croot%253E%253CmxCell%2520id%253D%25220%2522%252F%253E%253CmxCell%2520id%253D%25221%2522%2520parent%253D%25220%2522%252F%253E%253CmxCell%2520id%253D%25222%2522%2520value%253D%2522%25D0%259B%25D0%25B5%25D0%25BA%25D0%25B0%25D1%2580%25D1%2581%25D1%2582%25D0%25B2%25D0%25BE%2522%2520style%253D%2522rounded%253D1%253BwhiteSpace%253Dwrap%253Bhtml%253D1%253B%2522%2520vertex%253D%25221%2522%2520parent%253D%25221%2522%253E%253CmxGeometry%2520x%253D%2522180%2522%2520y%253D%2522280%2522%2520width%253D%2522150%2522%2520height%253D%252250%2522%2520as%253D%2522geometry%2522%252F%253E%253C%252FmxCell%253E%253C%252Froot%253E%253C%252FmxGraphModel%253E%26lt%3B%2Fspan%26gt%3B%26lt%3Bspan%20style%3D%26quot%3Bcolor%3A%20rgba(0%2C%200%2C%200%2C%200)%3B%20font-family%3A%20monospace%3B%20font-size%3A%200px%3B%20text-align%3A%20start%3B%20background-color%3A%20rgb(236%2C%20236%2C%20236)%3B%26quot%3B%26gt%3B%253CmxGraphModel%253E%253Croot%253E%253CmxCell%2520id%253D%25220%2522%252F%253E%253CmxCell%2520id%253D%25221%2522%2520parent%253D%25220%2522%252F%253E%253CmxCell%2520id%253D%25222%2522%2520value%253D%2522%25D0%259B%25D0%25B5%25D0%25BA%25D0%25B0%25D1%2580%25D1%2581%25D1%2582%25D0%25B2%25D0%25BE%2522%2520style%253D%2522rounded%253D1%253BwhiteSpace%253Dwrap%253Bhtml%253D1%253B%2522%2520vertex%253D%25221%2522%2520parent%253D%25221%2522%253E%253CmxGeometry%2520x%253D%2522180%2522%2520y%253D%2522280%2522%2520width%253D%2522150%2522%2520height%253D%252250%2522%2520as%253D%2522geometry%2522%252F%253E%253C%252FmxCell%253E%253C%252Froot%253E%253C%252FmxGraphModel%253E%26lt%3B%2Fspan%26gt%3B%26lt%3Bspan%20style%3D%26quot%3Bcolor%3A%20rgba(0%2C%200%2C%200%2C%200)%3B%20font-family%3A%20monospace%3B%20font-size%3A%200px%3B%20text-align%3A%20start%3B%20background-color%3A%20rgb(236%2C%20236%2C%20236)%3B%26quot%3B%26gt%3B%253CmxGraphModel%253E%253Croot%253E%253CmxCell%2520id%253D%25220%2522%252F%253E%253CmxCell%2520id%253D%25221%2522%2520parent%253D%25220%2522%252F%253E%253CmxCell%2520id%253D%25222%2522%2520value%253D%2522%25D0%259B%25D0%25B5%25D0%25BA%25D0%25B0%25D1%2580%25D1%2581%25D1%2582%25D0%25B2%25D0%25BE%2522%2520style%253D%2522rounded%253D1%253BwhiteSpace%253Dwrap%253Bhtml%253D1%253B%2522%2520vertex%253D%25221%2522%2520parent%253D%25221%2522%253E%253CmxGeometry%2520x%253D%2522180%2522%2520y%253D%2522280%2522%2520width%253D%2522150%2522%2520height%253D%252250%2522%2520as%253D%2522geometry%2522%252F%253E%253C%252FmxCell%253E%253C%252Froot%253E%253C%252FmxGraphModel%253E%26lt%3B%2Fspan%26gt%3B%22%20style%3D%22edgeStyle%3DorthogonalEdgeStyle%3Brounded%3D0%3BorthogonalLoop%3D1%3BjettySize%3Dauto%3Bhtml%3D1%3BendArrow%3Dnone%3BendFill%3D0%3B%22%20edge%3D%221%22%20parent%3D%221%22%3E%3CmxGeometry%20relative%3D%221%22%20as%3D%22geometry%22%3E%3CmxPoint%20x%3D%22255%22%20y%3D%22460%22%20as%3D%22sourcePoint%22%2F%3E%3CmxPoint%20x%3D%22255%22%20y%3D%22330%22%20as%3D%22targetPoint%22%2F%3E%3C%2FmxGeometry%3E%3C%2FmxCell%3E%3C%2Froot%3E%3C%2FmxGraphModel%3E&lt;/span&gt;" style="edgeStyle=orthogonalEdgeStyle;rounded=0;orthogonalLoop=1;jettySize=auto;html=1;endArrow=none;endFill=0;" edge="1" parent="1" source="Iy1BZUjgXlwGKle0z2-z-86" target="Iy1BZUjgXlwGKle0z2-z-127">
          <mxGeometry relative="1" as="geometry">
            <mxPoint x="324.98" y="1080" as="sourcePoint" />
            <mxPoint x="409.9565217391305" y="1160" as="targetPoint" />
            <Array as="points">
              <mxPoint x="325" y="1140" />
              <mxPoint x="410" y="1140" />
            </Array>
          </mxGeometry>
        </mxCell>
        <mxCell id="Iy1BZUjgXlwGKle0z2-z-96" value="Город" style="rounded=1;whiteSpace=wrap;html=1;" vertex="1" parent="1">
          <mxGeometry x="230" y="1465" width="150" height="50" as="geometry" />
        </mxCell>
        <mxCell id="Iy1BZUjgXlwGKle0z2-z-97" value="Находится в" style="rhombus;whiteSpace=wrap;html=1;" vertex="1" parent="1">
          <mxGeometry x="230" y="1260" width="150" height="60" as="geometry" />
        </mxCell>
        <mxCell id="Iy1BZUjgXlwGKle0z2-z-98" value="" style="rounded=1;whiteSpace=wrap;html=1;" vertex="1" parent="1">
          <mxGeometry x="39" y="1460" width="150" height="60" as="geometry" />
        </mxCell>
        <mxCell id="Iy1BZUjgXlwGKle0z2-z-99" value="Доставка стоит" style="rhombus;whiteSpace=wrap;html=1;" vertex="1" parent="1">
          <mxGeometry x="39" y="1460" width="150" height="60" as="geometry" />
        </mxCell>
        <mxCell id="Iy1BZUjgXlwGKle0z2-z-100" value="N" style="edgeStyle=orthogonalEdgeStyle;rounded=0;orthogonalLoop=1;jettySize=auto;html=1;endArrow=none;endFill=0;" edge="1" parent="1" source="Iy1BZUjgXlwGKle0z2-z-98" target="Iy1BZUjgXlwGKle0z2-z-96">
          <mxGeometry relative="1" as="geometry">
            <mxPoint x="220" y="1290" as="sourcePoint" />
            <mxPoint x="220" y="1190" as="targetPoint" />
            <Array as="points">
              <mxPoint x="220" y="1510" />
              <mxPoint x="220" y="1510" />
            </Array>
          </mxGeometry>
        </mxCell>
        <mxCell id="Iy1BZUjgXlwGKle0z2-z-101" value="N" style="edgeStyle=orthogonalEdgeStyle;rounded=0;orthogonalLoop=1;jettySize=auto;html=1;endArrow=none;endFill=0;" edge="1" parent="1" source="Iy1BZUjgXlwGKle0z2-z-98" target="Iy1BZUjgXlwGKle0z2-z-96">
          <mxGeometry relative="1" as="geometry">
            <mxPoint x="270" y="1370" as="sourcePoint" />
            <mxPoint x="405" y="1396" as="targetPoint" />
            <Array as="points">
              <mxPoint x="160" y="1480" />
              <mxPoint x="160" y="1480" />
            </Array>
          </mxGeometry>
        </mxCell>
        <mxCell id="Iy1BZUjgXlwGKle0z2-z-102" value="N" style="edgeStyle=orthogonalEdgeStyle;rounded=0;orthogonalLoop=1;jettySize=auto;html=1;endArrow=none;endFill=0;" edge="1" parent="1" source="Iy1BZUjgXlwGKle0z2-z-97" target="Iy1BZUjgXlwGKle0z2-z-127">
          <mxGeometry relative="1" as="geometry">
            <mxPoint x="210" y="1140" as="sourcePoint" />
            <mxPoint x="397" y="1210" as="targetPoint" />
            <Array as="points">
              <mxPoint x="305" y="1200" />
            </Array>
          </mxGeometry>
        </mxCell>
        <mxCell id="Iy1BZUjgXlwGKle0z2-z-103" value="1&lt;span style=&quot;color: rgba(0, 0, 0, 0); font-family: monospace; font-size: 0px; text-align: start; background-color: rgb(236, 236, 236);&quot;&gt;%3CmxGraphModel%3E%3Croot%3E%3CmxCell%20id%3D%220%22%2F%3E%3CmxCell%20id%3D%221%22%20parent%3D%220%22%2F%3E%3CmxCell%20id%3D%222%22%20value%3D%22N%26lt%3Bspan%20style%3D%26quot%3Bcolor%3A%20rgba(0%2C%200%2C%200%2C%200)%3B%20font-family%3A%20monospace%3B%20font-size%3A%200px%3B%20text-align%3A%20start%3B%20background-color%3A%20rgb(236%2C%20236%2C%20236)%3B%26quot%3B%26gt%3B%253CmxGraphModel%253E%253Croot%253E%253CmxCell%2520id%253D%25220%2522%252F%253E%253CmxCell%2520id%253D%25221%2522%2520parent%253D%25220%2522%252F%253E%253CmxCell%2520id%253D%25222%2522%2520value%253D%2522%25D0%259B%25D0%25B5%25D0%25BA%25D0%25B0%25D1%2580%25D1%2581%25D1%2582%25D0%25B2%25D0%25BE%2522%2520style%253D%2522rounded%253D1%253BwhiteSpace%253Dwrap%253Bhtml%253D1%253B%2522%2520vertex%253D%25221%2522%2520parent%253D%25221%2522%253E%253CmxGeometry%2520x%253D%2522180%2522%2520y%253D%2522280%2522%2520width%253D%2522150%2522%2520height%253D%252250%2522%2520as%253D%2522geometry%2522%252F%253E%253C%252FmxCell%253E%253C%252Froot%253E%253C%252FmxGraphModel%253E%26lt%3B%2Fspan%26gt%3B%26lt%3Bspan%20style%3D%26quot%3Bcolor%3A%20rgba(0%2C%200%2C%200%2C%200)%3B%20font-family%3A%20monospace%3B%20font-size%3A%200px%3B%20text-align%3A%20start%3B%20background-color%3A%20rgb(236%2C%20236%2C%20236)%3B%26quot%3B%26gt%3B%253CmxGraphModel%253E%253Croot%253E%253CmxCell%2520id%253D%25220%2522%252F%253E%253CmxCell%2520id%253D%25221%2522%2520parent%253D%25220%2522%252F%253E%253CmxCell%2520id%253D%25222%2522%2520value%253D%2522%25D0%259B%25D0%25B5%25D0%25BA%25D0%25B0%25D1%2580%25D1%2581%25D1%2582%25D0%25B2%25D0%25BE%2522%2520style%253D%2522rounded%253D1%253BwhiteSpace%253Dwrap%253Bhtml%253D1%253B%2522%2520vertex%253D%25221%2522%2520parent%253D%25221%2522%253E%253CmxGeometry%2520x%253D%2522180%2522%2520y%253D%2522280%2522%2520width%253D%2522150%2522%2520height%253D%252250%2522%2520as%253D%2522geometry%2522%252F%253E%253C%252FmxCell%253E%253C%252Froot%253E%253C%252FmxGraphModel%253E%26lt%3B%2Fspan%26gt%3B%26lt%3Bspan%20style%3D%26quot%3Bcolor%3A%20rgba(0%2C%200%2C%200%2C%200)%3B%20font-family%3A%20monospace%3B%20font-size%3A%200px%3B%20text-align%3A%20start%3B%20background-color%3A%20rgb(236%2C%20236%2C%20236)%3B%26quot%3B%26gt%3B%253CmxGraphModel%253E%253Croot%253E%253CmxCell%2520id%253D%25220%2522%252F%253E%253CmxCell%2520id%253D%25221%2522%2520parent%253D%25220%2522%252F%253E%253CmxCell%2520id%253D%25222%2522%2520value%253D%2522%25D0%259B%25D0%25B5%25D0%25BA%25D0%25B0%25D1%2580%25D1%2581%25D1%2582%25D0%25B2%25D0%25BE%2522%2520style%253D%2522rounded%253D1%253BwhiteSpace%253Dwrap%253Bhtml%253D1%253B%2522%2520vertex%253D%25221%2522%2520parent%253D%25221%2522%253E%253CmxGeometry%2520x%253D%2522180%2522%2520y%253D%2522280%2522%2520width%253D%2522150%2522%2520height%253D%252250%2522%2520as%253D%2522geometry%2522%252F%253E%253C%252FmxCell%253E%253C%252Froot%253E%253C%252FmxGraphModel%253E%26lt%3B%2Fspan%26gt%3B%22%20style%3D%22edgeStyle%3DorthogonalEdgeStyle%3Brounded%3D0%3BorthogonalLoop%3D1%3BjettySize%3Dauto%3Bhtml%3D1%3BendArrow%3Dnone%3BendFill%3D0%3B%22%20edge%3D%221%22%20parent%3D%221%22%3E%3CmxGeometry%20relative%3D%221%22%20as%3D%22geometry%22%3E%3CmxPoint%20x%3D%22255%22%20y%3D%22460%22%20as%3D%22sourcePoint%22%2F%3E%3CmxPoint%20x%3D%22255%22%20y%3D%22330%22%20as%3D%22targetPoint%22%2F%3E%3C%2FmxGeometry%3E%3C%2FmxCell%3E%3C%2Froot%3E%3C%2FmxGraphModel%3E&lt;/span&gt;" style="edgeStyle=orthogonalEdgeStyle;rounded=0;orthogonalLoop=1;jettySize=auto;html=1;endArrow=none;endFill=0;" edge="1" parent="1" source="Iy1BZUjgXlwGKle0z2-z-97" target="Iy1BZUjgXlwGKle0z2-z-96">
          <mxGeometry relative="1" as="geometry">
            <mxPoint x="293" y="1320" as="sourcePoint" />
            <mxPoint x="248" y="1360" as="targetPoint" />
            <Array as="points">
              <mxPoint x="305" y="1330" />
              <mxPoint x="305" y="1330" />
            </Array>
          </mxGeometry>
        </mxCell>
        <mxCell id="Iy1BZUjgXlwGKle0z2-z-105" value="1&lt;span style=&quot;color: rgba(0, 0, 0, 0); font-family: monospace; font-size: 0px; text-align: start; background-color: rgb(236, 236, 236);&quot;&gt;%3CmxGraphModel%3E%3Croot%3E%3CmxCell%20id%3D%220%22%2F%3E%3CmxCell%20id%3D%221%22%20parent%3D%220%22%2F%3E%3CmxCell%20id%3D%222%22%20value%3D%22N%26lt%3Bspan%20style%3D%26quot%3Bcolor%3A%20rgba(0%2C%200%2C%200%2C%200)%3B%20font-family%3A%20monospace%3B%20font-size%3A%200px%3B%20text-align%3A%20start%3B%20background-color%3A%20rgb(236%2C%20236%2C%20236)%3B%26quot%3B%26gt%3B%253CmxGraphModel%253E%253Croot%253E%253CmxCell%2520id%253D%25220%2522%252F%253E%253CmxCell%2520id%253D%25221%2522%2520parent%253D%25220%2522%252F%253E%253CmxCell%2520id%253D%25222%2522%2520value%253D%2522%25D0%259B%25D0%25B5%25D0%25BA%25D0%25B0%25D1%2580%25D1%2581%25D1%2582%25D0%25B2%25D0%25BE%2522%2520style%253D%2522rounded%253D1%253BwhiteSpace%253Dwrap%253Bhtml%253D1%253B%2522%2520vertex%253D%25221%2522%2520parent%253D%25221%2522%253E%253CmxGeometry%2520x%253D%2522180%2522%2520y%253D%2522280%2522%2520width%253D%2522150%2522%2520height%253D%252250%2522%2520as%253D%2522geometry%2522%252F%253E%253C%252FmxCell%253E%253C%252Froot%253E%253C%252FmxGraphModel%253E%26lt%3B%2Fspan%26gt%3B%26lt%3Bspan%20style%3D%26quot%3Bcolor%3A%20rgba(0%2C%200%2C%200%2C%200)%3B%20font-family%3A%20monospace%3B%20font-size%3A%200px%3B%20text-align%3A%20start%3B%20background-color%3A%20rgb(236%2C%20236%2C%20236)%3B%26quot%3B%26gt%3B%253CmxGraphModel%253E%253Croot%253E%253CmxCell%2520id%253D%25220%2522%252F%253E%253CmxCell%2520id%253D%25221%2522%2520parent%253D%25220%2522%252F%253E%253CmxCell%2520id%253D%25222%2522%2520value%253D%2522%25D0%259B%25D0%25B5%25D0%25BA%25D0%25B0%25D1%2580%25D1%2581%25D1%2582%25D0%25B2%25D0%25BE%2522%2520style%253D%2522rounded%253D1%253BwhiteSpace%253Dwrap%253Bhtml%253D1%253B%2522%2520vertex%253D%25221%2522%2520parent%253D%25221%2522%253E%253CmxGeometry%2520x%253D%2522180%2522%2520y%253D%2522280%2522%2520width%253D%2522150%2522%2520height%253D%252250%2522%2520as%253D%2522geometry%2522%252F%253E%253C%252FmxCell%253E%253C%252Froot%253E%253C%252FmxGraphModel%253E%26lt%3B%2Fspan%26gt%3B%26lt%3Bspan%20style%3D%26quot%3Bcolor%3A%20rgba(0%2C%200%2C%200%2C%200)%3B%20font-family%3A%20monospace%3B%20font-size%3A%200px%3B%20text-align%3A%20start%3B%20background-color%3A%20rgb(236%2C%20236%2C%20236)%3B%26quot%3B%26gt%3B%253CmxGraphModel%253E%253Croot%253E%253CmxCell%2520id%253D%25220%2522%252F%253E%253CmxCell%2520id%253D%25221%2522%2520parent%253D%25220%2522%252F%253E%253CmxCell%2520id%253D%25222%2522%2520value%253D%2522%25D0%259B%25D0%25B5%25D0%25BA%25D0%25B0%25D1%2580%25D1%2581%25D1%2582%25D0%25B2%25D0%25BE%2522%2520style%253D%2522rounded%253D1%253BwhiteSpace%253Dwrap%253Bhtml%253D1%253B%2522%2520vertex%253D%25221%2522%2520parent%253D%25221%2522%253E%253CmxGeometry%2520x%253D%2522180%2522%2520y%253D%2522280%2522%2520width%253D%2522150%2522%2520height%253D%252250%2522%2520as%253D%2522geometry%2522%252F%253E%253C%252FmxCell%253E%253C%252Froot%253E%253C%252FmxGraphModel%253E%26lt%3B%2Fspan%26gt%3B%22%20style%3D%22edgeStyle%3DorthogonalEdgeStyle%3Brounded%3D0%3BorthogonalLoop%3D1%3BjettySize%3Dauto%3Bhtml%3D1%3BendArrow%3Dnone%3BendFill%3D0%3B%22%20edge%3D%221%22%20parent%3D%221%22%3E%3CmxGeometry%20relative%3D%221%22%20as%3D%22geometry%22%3E%3CmxPoint%20x%3D%22255%22%20y%3D%22460%22%20as%3D%22sourcePoint%22%2F%3E%3CmxPoint%20x%3D%22255%22%20y%3D%22330%22%20as%3D%22targetPoint%22%2F%3E%3C%2FmxGeometry%3E%3C%2FmxCell%3E%3C%2Froot%3E%3C%2FmxGraphModel%3E&lt;/span&gt;" style="edgeStyle=orthogonalEdgeStyle;rounded=0;orthogonalLoop=1;jettySize=auto;html=1;endArrow=none;endFill=0;" edge="1" parent="1" source="Iy1BZUjgXlwGKle0z2-z-129" target="Iy1BZUjgXlwGKle0z2-z-81">
          <mxGeometry relative="1" as="geometry">
            <mxPoint x="565" y="1309.9999999999998" as="sourcePoint" />
            <mxPoint x="390" y="1380" as="targetPoint" />
            <Array as="points">
              <mxPoint x="500" y="1370" />
            </Array>
          </mxGeometry>
        </mxCell>
        <mxCell id="Iy1BZUjgXlwGKle0z2-z-106" value="1&lt;span style=&quot;color: rgba(0, 0, 0, 0); font-family: monospace; font-size: 0px; text-align: start; background-color: rgb(236, 236, 236);&quot;&gt;%3CmxGraphModel%3E%3Croot%3E%3CmxCell%20id%3D%220%22%2F%3E%3CmxCell%20id%3D%221%22%20parent%3D%220%22%2F%3E%3CmxCell%20id%3D%222%22%20value%3D%22N%26lt%3Bspan%20style%3D%26quot%3Bcolor%3A%20rgba(0%2C%200%2C%200%2C%200)%3B%20font-family%3A%20monospace%3B%20font-size%3A%200px%3B%20text-align%3A%20start%3B%20background-color%3A%20rgb(236%2C%20236%2C%20236)%3B%26quot%3B%26gt%3B%253CmxGraphModel%253E%253Croot%253E%253CmxCell%2520id%253D%25220%2522%252F%253E%253CmxCell%2520id%253D%25221%2522%2520parent%253D%25220%2522%252F%253E%253CmxCell%2520id%253D%25222%2522%2520value%253D%2522%25D0%259B%25D0%25B5%25D0%25BA%25D0%25B0%25D1%2580%25D1%2581%25D1%2582%25D0%25B2%25D0%25BE%2522%2520style%253D%2522rounded%253D1%253BwhiteSpace%253Dwrap%253Bhtml%253D1%253B%2522%2520vertex%253D%25221%2522%2520parent%253D%25221%2522%253E%253CmxGeometry%2520x%253D%2522180%2522%2520y%253D%2522280%2522%2520width%253D%2522150%2522%2520height%253D%252250%2522%2520as%253D%2522geometry%2522%252F%253E%253C%252FmxCell%253E%253C%252Froot%253E%253C%252FmxGraphModel%253E%26lt%3B%2Fspan%26gt%3B%26lt%3Bspan%20style%3D%26quot%3Bcolor%3A%20rgba(0%2C%200%2C%200%2C%200)%3B%20font-family%3A%20monospace%3B%20font-size%3A%200px%3B%20text-align%3A%20start%3B%20background-color%3A%20rgb(236%2C%20236%2C%20236)%3B%26quot%3B%26gt%3B%253CmxGraphModel%253E%253Croot%253E%253CmxCell%2520id%253D%25220%2522%252F%253E%253CmxCell%2520id%253D%25221%2522%2520parent%253D%25220%2522%252F%253E%253CmxCell%2520id%253D%25222%2522%2520value%253D%2522%25D0%259B%25D0%25B5%25D0%25BA%25D0%25B0%25D1%2580%25D1%2581%25D1%2582%25D0%25B2%25D0%25BE%2522%2520style%253D%2522rounded%253D1%253BwhiteSpace%253Dwrap%253Bhtml%253D1%253B%2522%2520vertex%253D%25221%2522%2520parent%253D%25221%2522%253E%253CmxGeometry%2520x%253D%2522180%2522%2520y%253D%2522280%2522%2520width%253D%2522150%2522%2520height%253D%252250%2522%2520as%253D%2522geometry%2522%252F%253E%253C%252FmxCell%253E%253C%252Froot%253E%253C%252FmxGraphModel%253E%26lt%3B%2Fspan%26gt%3B%26lt%3Bspan%20style%3D%26quot%3Bcolor%3A%20rgba(0%2C%200%2C%200%2C%200)%3B%20font-family%3A%20monospace%3B%20font-size%3A%200px%3B%20text-align%3A%20start%3B%20background-color%3A%20rgb(236%2C%20236%2C%20236)%3B%26quot%3B%26gt%3B%253CmxGraphModel%253E%253Croot%253E%253CmxCell%2520id%253D%25220%2522%252F%253E%253CmxCell%2520id%253D%25221%2522%2520parent%253D%25220%2522%252F%253E%253CmxCell%2520id%253D%25222%2522%2520value%253D%2522%25D0%259B%25D0%25B5%25D0%25BA%25D0%25B0%25D1%2580%25D1%2581%25D1%2582%25D0%25B2%25D0%25BE%2522%2520style%253D%2522rounded%253D1%253BwhiteSpace%253Dwrap%253Bhtml%253D1%253B%2522%2520vertex%253D%25221%2522%2520parent%253D%25221%2522%253E%253CmxGeometry%2520x%253D%2522180%2522%2520y%253D%2522280%2522%2520width%253D%2522150%2522%2520height%253D%252250%2522%2520as%253D%2522geometry%2522%252F%253E%253C%252FmxCell%253E%253C%252Froot%253E%253C%252FmxGraphModel%253E%26lt%3B%2Fspan%26gt%3B%22%20style%3D%22edgeStyle%3DorthogonalEdgeStyle%3Brounded%3D0%3BorthogonalLoop%3D1%3BjettySize%3Dauto%3Bhtml%3D1%3BendArrow%3Dnone%3BendFill%3D0%3B%22%20edge%3D%221%22%20parent%3D%221%22%3E%3CmxGeometry%20relative%3D%221%22%20as%3D%22geometry%22%3E%3CmxPoint%20x%3D%22255%22%20y%3D%22460%22%20as%3D%22sourcePoint%22%2F%3E%3CmxPoint%20x%3D%22255%22%20y%3D%22330%22%20as%3D%22targetPoint%22%2F%3E%3C%2FmxGeometry%3E%3C%2FmxCell%3E%3C%2Froot%3E%3C%2FmxGraphModel%3E&lt;/span&gt;" style="edgeStyle=orthogonalEdgeStyle;rounded=0;orthogonalLoop=1;jettySize=auto;html=1;endArrow=none;endFill=0;" edge="1" parent="1" source="Iy1BZUjgXlwGKle0z2-z-127" target="Iy1BZUjgXlwGKle0z2-z-129">
          <mxGeometry relative="1" as="geometry">
            <mxPoint x="489.9565217391305" y="1210" as="sourcePoint" />
            <mxPoint x="565.0344827586207" y="1250.013793103448" as="targetPoint" />
            <Array as="points">
              <mxPoint x="478" y="1240" />
              <mxPoint x="478" y="1240" />
            </Array>
          </mxGeometry>
        </mxCell>
        <mxCell id="Iy1BZUjgXlwGKle0z2-z-107" value="Доставка" style="rounded=1;whiteSpace=wrap;html=1;" vertex="1" parent="1">
          <mxGeometry x="201" y="924" width="142" height="42" as="geometry" />
        </mxCell>
        <mxCell id="Iy1BZUjgXlwGKle0z2-z-108" value="Клиент" style="swimlane;fontStyle=0;childLayout=stackLayout;horizontal=1;startSize=30;horizontalStack=0;resizeParent=1;resizeParentMax=0;resizeLast=0;collapsible=1;marginBottom=0;whiteSpace=wrap;html=1;" vertex="1" parent="1">
          <mxGeometry x="757" y="890" width="140" height="150" as="geometry" />
        </mxCell>
        <mxCell id="Iy1BZUjgXlwGKle0z2-z-109" value="Id" style="text;strokeColor=none;fillColor=none;align=left;verticalAlign=middle;spacingLeft=4;spacingRight=4;overflow=hidden;points=[[0,0.5],[1,0.5]];portConstraint=eastwest;rotatable=0;whiteSpace=wrap;html=1;fontStyle=4" vertex="1" parent="Iy1BZUjgXlwGKle0z2-z-108">
          <mxGeometry y="30" width="140" height="30" as="geometry" />
        </mxCell>
        <mxCell id="Iy1BZUjgXlwGKle0z2-z-110" value="ФИО" style="text;strokeColor=none;fillColor=none;align=left;verticalAlign=middle;spacingLeft=4;spacingRight=4;overflow=hidden;points=[[0,0.5],[1,0.5]];portConstraint=eastwest;rotatable=0;whiteSpace=wrap;html=1;" vertex="1" parent="Iy1BZUjgXlwGKle0z2-z-108">
          <mxGeometry y="60" width="140" height="30" as="geometry" />
        </mxCell>
        <mxCell id="Iy1BZUjgXlwGKle0z2-z-111" value="Телефон" style="text;strokeColor=none;fillColor=none;align=left;verticalAlign=middle;spacingLeft=4;spacingRight=4;overflow=hidden;points=[[0,0.5],[1,0.5]];portConstraint=eastwest;rotatable=0;whiteSpace=wrap;html=1;" vertex="1" parent="Iy1BZUjgXlwGKle0z2-z-108">
          <mxGeometry y="90" width="140" height="30" as="geometry" />
        </mxCell>
        <mxCell id="Iy1BZUjgXlwGKle0z2-z-112" value="Паспорт" style="text;strokeColor=none;fillColor=none;align=left;verticalAlign=middle;spacingLeft=4;spacingRight=4;overflow=hidden;points=[[0,0.5],[1,0.5]];portConstraint=eastwest;rotatable=0;whiteSpace=wrap;html=1;" vertex="1" parent="Iy1BZUjgXlwGKle0z2-z-108">
          <mxGeometry y="120" width="140" height="30" as="geometry" />
        </mxCell>
        <mxCell id="Iy1BZUjgXlwGKle0z2-z-120" value="Доставка" style="swimlane;fontStyle=0;childLayout=stackLayout;horizontal=1;startSize=30;horizontalStack=0;resizeParent=1;resizeParentMax=0;resizeLast=0;collapsible=1;marginBottom=0;whiteSpace=wrap;html=1;" vertex="1" parent="1">
          <mxGeometry x="990" y="870" width="140" height="210" as="geometry" />
        </mxCell>
        <mxCell id="Iy1BZUjgXlwGKle0z2-z-121" value="Id" style="text;strokeColor=none;fillColor=none;align=left;verticalAlign=middle;spacingLeft=4;spacingRight=4;overflow=hidden;points=[[0,0.5],[1,0.5]];portConstraint=eastwest;rotatable=0;whiteSpace=wrap;html=1;fontStyle=4" vertex="1" parent="Iy1BZUjgXlwGKle0z2-z-120">
          <mxGeometry y="30" width="140" height="30" as="geometry" />
        </mxCell>
        <mxCell id="Iy1BZUjgXlwGKle0z2-z-122" value="Отправитель" style="text;strokeColor=none;fillColor=none;align=left;verticalAlign=middle;spacingLeft=4;spacingRight=4;overflow=hidden;points=[[0,0.5],[1,0.5]];portConstraint=eastwest;rotatable=0;whiteSpace=wrap;html=1;" vertex="1" parent="Iy1BZUjgXlwGKle0z2-z-120">
          <mxGeometry y="60" width="140" height="30" as="geometry" />
        </mxCell>
        <mxCell id="Iy1BZUjgXlwGKle0z2-z-123" value="Получатель" style="text;strokeColor=none;fillColor=none;align=left;verticalAlign=middle;spacingLeft=4;spacingRight=4;overflow=hidden;points=[[0,0.5],[1,0.5]];portConstraint=eastwest;rotatable=0;whiteSpace=wrap;html=1;" vertex="1" parent="Iy1BZUjgXlwGKle0z2-z-120">
          <mxGeometry y="90" width="140" height="30" as="geometry" />
        </mxCell>
        <mxCell id="Iy1BZUjgXlwGKle0z2-z-124" value="Место отправки" style="text;strokeColor=none;fillColor=none;align=left;verticalAlign=middle;spacingLeft=4;spacingRight=4;overflow=hidden;points=[[0,0.5],[1,0.5]];portConstraint=eastwest;rotatable=0;whiteSpace=wrap;html=1;" vertex="1" parent="Iy1BZUjgXlwGKle0z2-z-120">
          <mxGeometry y="120" width="140" height="30" as="geometry" />
        </mxCell>
        <mxCell id="Iy1BZUjgXlwGKle0z2-z-125" value="Место получения" style="text;strokeColor=none;fillColor=none;align=left;verticalAlign=middle;spacingLeft=4;spacingRight=4;overflow=hidden;points=[[0,0.5],[1,0.5]];portConstraint=eastwest;rotatable=0;whiteSpace=wrap;html=1;" vertex="1" parent="Iy1BZUjgXlwGKle0z2-z-120">
          <mxGeometry y="150" width="140" height="30" as="geometry" />
        </mxCell>
        <mxCell id="Iy1BZUjgXlwGKle0z2-z-126" value="Статус" style="text;strokeColor=none;fillColor=none;align=left;verticalAlign=middle;spacingLeft=4;spacingRight=4;overflow=hidden;points=[[0,0.5],[1,0.5]];portConstraint=eastwest;rotatable=0;whiteSpace=wrap;html=1;" vertex="1" parent="Iy1BZUjgXlwGKle0z2-z-120">
          <mxGeometry y="180" width="140" height="30" as="geometry" />
        </mxCell>
        <mxCell id="Iy1BZUjgXlwGKle0z2-z-127" value="&lt;font style=&quot;font-size: 12px;&quot;&gt;Место&lt;/font&gt;" style="swimlane;childLayout=stackLayout;horizontal=1;startSize=50;horizontalStack=0;rounded=1;fontSize=14;fontStyle=0;strokeWidth=1;resizeParent=0;resizeLast=1;shadow=0;dashed=0;align=center;arcSize=4;whiteSpace=wrap;html=1;" vertex="1" parent="1">
          <mxGeometry x="350" y="1160" width="160" height="70" as="geometry">
            <mxRectangle x="550" y="1120" width="80" height="50" as="alternateBounds" />
          </mxGeometry>
        </mxCell>
        <mxCell id="Iy1BZUjgXlwGKle0z2-z-129" value="Является" style="strokeWidth=1;html=1;shape=mxgraph.flowchart.extract_or_measurement;whiteSpace=wrap;" vertex="1" parent="1">
          <mxGeometry x="430" y="1260" width="95" height="60" as="geometry" />
        </mxCell>
        <mxCell id="Iy1BZUjgXlwGKle0z2-z-134" value="Адрес" style="rounded=1;whiteSpace=wrap;html=1;" vertex="1" parent="1">
          <mxGeometry x="420" y="1420" width="150" height="50" as="geometry" />
        </mxCell>
        <mxCell id="Iy1BZUjgXlwGKle0z2-z-135" value="1&lt;span style=&quot;color: rgba(0, 0, 0, 0); font-family: monospace; font-size: 0px; text-align: start; background-color: rgb(236, 236, 236);&quot;&gt;%3CmxGraphModel%3E%3Croot%3E%3CmxCell%20id%3D%220%22%2F%3E%3CmxCell%20id%3D%221%22%20parent%3D%220%22%2F%3E%3CmxCell%20id%3D%222%22%20value%3D%22N%26lt%3Bspan%20style%3D%26quot%3Bcolor%3A%20rgba(0%2C%200%2C%200%2C%200)%3B%20font-family%3A%20monospace%3B%20font-size%3A%200px%3B%20text-align%3A%20start%3B%20background-color%3A%20rgb(236%2C%20236%2C%20236)%3B%26quot%3B%26gt%3B%253CmxGraphModel%253E%253Croot%253E%253CmxCell%2520id%253D%25220%2522%252F%253E%253CmxCell%2520id%253D%25221%2522%2520parent%253D%25220%2522%252F%253E%253CmxCell%2520id%253D%25222%2522%2520value%253D%2522%25D0%259B%25D0%25B5%25D0%25BA%25D0%25B0%25D1%2580%25D1%2581%25D1%2582%25D0%25B2%25D0%25BE%2522%2520style%253D%2522rounded%253D1%253BwhiteSpace%253Dwrap%253Bhtml%253D1%253B%2522%2520vertex%253D%25221%2522%2520parent%253D%25221%2522%253E%253CmxGeometry%2520x%253D%2522180%2522%2520y%253D%2522280%2522%2520width%253D%2522150%2522%2520height%253D%252250%2522%2520as%253D%2522geometry%2522%252F%253E%253C%252FmxCell%253E%253C%252Froot%253E%253C%252FmxGraphModel%253E%26lt%3B%2Fspan%26gt%3B%26lt%3Bspan%20style%3D%26quot%3Bcolor%3A%20rgba(0%2C%200%2C%200%2C%200)%3B%20font-family%3A%20monospace%3B%20font-size%3A%200px%3B%20text-align%3A%20start%3B%20background-color%3A%20rgb(236%2C%20236%2C%20236)%3B%26quot%3B%26gt%3B%253CmxGraphModel%253E%253Croot%253E%253CmxCell%2520id%253D%25220%2522%252F%253E%253CmxCell%2520id%253D%25221%2522%2520parent%253D%25220%2522%252F%253E%253CmxCell%2520id%253D%25222%2522%2520value%253D%2522%25D0%259B%25D0%25B5%25D0%25BA%25D0%25B0%25D1%2580%25D1%2581%25D1%2582%25D0%25B2%25D0%25BE%2522%2520style%253D%2522rounded%253D1%253BwhiteSpace%253Dwrap%253Bhtml%253D1%253B%2522%2520vertex%253D%25221%2522%2520parent%253D%25221%2522%253E%253CmxGeometry%2520x%253D%2522180%2522%2520y%253D%2522280%2522%2520width%253D%2522150%2522%2520height%253D%252250%2522%2520as%253D%2522geometry%2522%252F%253E%253C%252FmxCell%253E%253C%252Froot%253E%253C%252FmxGraphModel%253E%26lt%3B%2Fspan%26gt%3B%26lt%3Bspan%20style%3D%26quot%3Bcolor%3A%20rgba(0%2C%200%2C%200%2C%200)%3B%20font-family%3A%20monospace%3B%20font-size%3A%200px%3B%20text-align%3A%20start%3B%20background-color%3A%20rgb(236%2C%20236%2C%20236)%3B%26quot%3B%26gt%3B%253CmxGraphModel%253E%253Croot%253E%253CmxCell%2520id%253D%25220%2522%252F%253E%253CmxCell%2520id%253D%25221%2522%2520parent%253D%25220%2522%252F%253E%253CmxCell%2520id%253D%25222%2522%2520value%253D%2522%25D0%259B%25D0%25B5%25D0%25BA%25D0%25B0%25D1%2580%25D1%2581%25D1%2582%25D0%25B2%25D0%25BE%2522%2520style%253D%2522rounded%253D1%253BwhiteSpace%253Dwrap%253Bhtml%253D1%253B%2522%2520vertex%253D%25221%2522%2520parent%253D%25221%2522%253E%253CmxGeometry%2520x%253D%2522180%2522%2520y%253D%2522280%2522%2520width%253D%2522150%2522%2520height%253D%252250%2522%2520as%253D%2522geometry%2522%252F%253E%253C%252FmxCell%253E%253C%252Froot%253E%253C%252FmxGraphModel%253E%26lt%3B%2Fspan%26gt%3B%22%20style%3D%22edgeStyle%3DorthogonalEdgeStyle%3Brounded%3D0%3BorthogonalLoop%3D1%3BjettySize%3Dauto%3Bhtml%3D1%3BendArrow%3Dnone%3BendFill%3D0%3B%22%20edge%3D%221%22%20parent%3D%221%22%3E%3CmxGeometry%20relative%3D%221%22%20as%3D%22geometry%22%3E%3CmxPoint%20x%3D%22255%22%20y%3D%22460%22%20as%3D%22sourcePoint%22%2F%3E%3CmxPoint%20x%3D%22255%22%20y%3D%22330%22%20as%3D%22targetPoint%22%2F%3E%3C%2FmxGeometry%3E%3C%2FmxCell%3E%3C%2Froot%3E%3C%2FmxGraphModel%3E&lt;/span&gt;" style="edgeStyle=orthogonalEdgeStyle;rounded=0;orthogonalLoop=1;jettySize=auto;html=1;endArrow=none;endFill=0;" edge="1" parent="1" source="Iy1BZUjgXlwGKle0z2-z-129" target="Iy1BZUjgXlwGKle0z2-z-134">
          <mxGeometry relative="1" as="geometry">
            <mxPoint x="470" y="1330" as="sourcePoint" />
            <mxPoint x="532" y="1360" as="targetPoint" />
            <Array as="points">
              <mxPoint x="470" y="1390" />
              <mxPoint x="470" y="1390" />
            </Array>
          </mxGeometry>
        </mxCell>
        <mxCell id="Iy1BZUjgXlwGKle0z2-z-138" style="edgeStyle=orthogonalEdgeStyle;rounded=0;orthogonalLoop=1;jettySize=auto;html=1;startArrow=ERzeroToMany;startFill=0;endArrow=ERone;endFill=0;" edge="1" parent="1" source="Iy1BZUjgXlwGKle0z2-z-122" target="Iy1BZUjgXlwGKle0z2-z-109">
          <mxGeometry relative="1" as="geometry" />
        </mxCell>
        <mxCell id="Iy1BZUjgXlwGKle0z2-z-139" style="edgeStyle=orthogonalEdgeStyle;rounded=0;orthogonalLoop=1;jettySize=auto;html=1;startArrow=ERzeroToMany;startFill=0;endArrow=ERone;endFill=0;" edge="1" parent="1" source="Iy1BZUjgXlwGKle0z2-z-123" target="Iy1BZUjgXlwGKle0z2-z-109">
          <mxGeometry relative="1" as="geometry" />
        </mxCell>
        <mxCell id="Iy1BZUjgXlwGKle0z2-z-140" value="Место" style="swimlane;fontStyle=0;childLayout=stackLayout;horizontal=1;startSize=30;horizontalStack=0;resizeParent=1;resizeParentMax=0;resizeLast=0;collapsible=1;marginBottom=0;whiteSpace=wrap;html=1;" vertex="1" parent="1">
          <mxGeometry x="757" y="1070" width="140" height="150" as="geometry" />
        </mxCell>
        <mxCell id="Iy1BZUjgXlwGKle0z2-z-141" value="Id" style="text;strokeColor=none;fillColor=none;align=left;verticalAlign=middle;spacingLeft=4;spacingRight=4;overflow=hidden;points=[[0,0.5],[1,0.5]];portConstraint=eastwest;rotatable=0;whiteSpace=wrap;html=1;fontStyle=4" vertex="1" parent="Iy1BZUjgXlwGKle0z2-z-140">
          <mxGeometry y="30" width="140" height="30" as="geometry" />
        </mxCell>
        <mxCell id="Iy1BZUjgXlwGKle0z2-z-142" value="Тип (филиал/адрес)" style="text;strokeColor=none;fillColor=none;align=left;verticalAlign=middle;spacingLeft=4;spacingRight=4;overflow=hidden;points=[[0,0.5],[1,0.5]];portConstraint=eastwest;rotatable=0;whiteSpace=wrap;html=1;" vertex="1" parent="Iy1BZUjgXlwGKle0z2-z-140">
          <mxGeometry y="60" width="140" height="30" as="geometry" />
        </mxCell>
        <mxCell id="Iy1BZUjgXlwGKle0z2-z-143" value="Адрес" style="text;strokeColor=none;fillColor=none;align=left;verticalAlign=middle;spacingLeft=4;spacingRight=4;overflow=hidden;points=[[0,0.5],[1,0.5]];portConstraint=eastwest;rotatable=0;whiteSpace=wrap;html=1;" vertex="1" parent="Iy1BZUjgXlwGKle0z2-z-140">
          <mxGeometry y="90" width="140" height="30" as="geometry" />
        </mxCell>
        <mxCell id="Iy1BZUjgXlwGKle0z2-z-144" value="Название филиала" style="text;strokeColor=none;fillColor=none;align=left;verticalAlign=middle;spacingLeft=4;spacingRight=4;overflow=hidden;points=[[0,0.5],[1,0.5]];portConstraint=eastwest;rotatable=0;whiteSpace=wrap;html=1;" vertex="1" parent="Iy1BZUjgXlwGKle0z2-z-140">
          <mxGeometry y="120" width="140" height="30" as="geometry" />
        </mxCell>
        <mxCell id="Iy1BZUjgXlwGKle0z2-z-148" style="edgeStyle=orthogonalEdgeStyle;rounded=0;orthogonalLoop=1;jettySize=auto;html=1;startArrow=ERzeroToMany;startFill=0;endArrow=ERone;endFill=0;" edge="1" parent="1" source="Iy1BZUjgXlwGKle0z2-z-124" target="Iy1BZUjgXlwGKle0z2-z-141">
          <mxGeometry relative="1" as="geometry">
            <mxPoint x="1050" y="1030" as="sourcePoint" />
            <mxPoint x="890" y="970" as="targetPoint" />
            <Array as="points">
              <mxPoint x="950" y="1005" />
              <mxPoint x="950" y="1110" />
            </Array>
          </mxGeometry>
        </mxCell>
        <mxCell id="Iy1BZUjgXlwGKle0z2-z-149" style="edgeStyle=orthogonalEdgeStyle;rounded=0;orthogonalLoop=1;jettySize=auto;html=1;startArrow=ERzeroToMany;startFill=0;endArrow=ERone;endFill=0;" edge="1" parent="1" source="Iy1BZUjgXlwGKle0z2-z-125" target="Iy1BZUjgXlwGKle0z2-z-141">
          <mxGeometry relative="1" as="geometry">
            <mxPoint x="1080" y="1050" as="sourcePoint" />
            <mxPoint x="920" y="1160" as="targetPoint" />
            <Array as="points">
              <mxPoint x="950" y="1035" />
              <mxPoint x="950" y="1110" />
            </Array>
          </mxGeometry>
        </mxCell>
        <mxCell id="Iy1BZUjgXlwGKle0z2-z-150" value="Город" style="swimlane;fontStyle=0;childLayout=stackLayout;horizontal=1;startSize=30;horizontalStack=0;resizeParent=1;resizeParentMax=0;resizeLast=0;collapsible=1;marginBottom=0;whiteSpace=wrap;html=1;" vertex="1" parent="1">
          <mxGeometry x="977" y="1120" width="140" height="90" as="geometry" />
        </mxCell>
        <mxCell id="Iy1BZUjgXlwGKle0z2-z-151" value="Id" style="text;strokeColor=none;fillColor=none;align=left;verticalAlign=middle;spacingLeft=4;spacingRight=4;overflow=hidden;points=[[0,0.5],[1,0.5]];portConstraint=eastwest;rotatable=0;whiteSpace=wrap;html=1;fontStyle=4" vertex="1" parent="Iy1BZUjgXlwGKle0z2-z-150">
          <mxGeometry y="30" width="140" height="30" as="geometry" />
        </mxCell>
        <mxCell id="Iy1BZUjgXlwGKle0z2-z-152" value="Название" style="text;strokeColor=none;fillColor=none;align=left;verticalAlign=middle;spacingLeft=4;spacingRight=4;overflow=hidden;points=[[0,0.5],[1,0.5]];portConstraint=eastwest;rotatable=0;whiteSpace=wrap;html=1;" vertex="1" parent="Iy1BZUjgXlwGKle0z2-z-150">
          <mxGeometry y="60" width="140" height="30" as="geometry" />
        </mxCell>
        <mxCell id="Iy1BZUjgXlwGKle0z2-z-155" value="Стоимость межгорода" style="swimlane;fontStyle=0;childLayout=stackLayout;horizontal=1;startSize=30;horizontalStack=0;resizeParent=1;resizeParentMax=0;resizeLast=0;collapsible=1;marginBottom=0;whiteSpace=wrap;html=1;" vertex="1" parent="1">
          <mxGeometry x="977" y="1241" width="140" height="150" as="geometry" />
        </mxCell>
        <mxCell id="Iy1BZUjgXlwGKle0z2-z-156" value="Id" style="text;strokeColor=none;fillColor=none;align=left;verticalAlign=middle;spacingLeft=4;spacingRight=4;overflow=hidden;points=[[0,0.5],[1,0.5]];portConstraint=eastwest;rotatable=0;whiteSpace=wrap;html=1;fontStyle=4" vertex="1" parent="Iy1BZUjgXlwGKle0z2-z-155">
          <mxGeometry y="30" width="140" height="30" as="geometry" />
        </mxCell>
        <mxCell id="Iy1BZUjgXlwGKle0z2-z-157" value="Город отправки" style="text;strokeColor=none;fillColor=none;align=left;verticalAlign=middle;spacingLeft=4;spacingRight=4;overflow=hidden;points=[[0,0.5],[1,0.5]];portConstraint=eastwest;rotatable=0;whiteSpace=wrap;html=1;" vertex="1" parent="Iy1BZUjgXlwGKle0z2-z-155">
          <mxGeometry y="60" width="140" height="30" as="geometry" />
        </mxCell>
        <mxCell id="Iy1BZUjgXlwGKle0z2-z-158" value="Город получения" style="text;strokeColor=none;fillColor=none;align=left;verticalAlign=middle;spacingLeft=4;spacingRight=4;overflow=hidden;points=[[0,0.5],[1,0.5]];portConstraint=eastwest;rotatable=0;whiteSpace=wrap;html=1;" vertex="1" parent="Iy1BZUjgXlwGKle0z2-z-155">
          <mxGeometry y="90" width="140" height="30" as="geometry" />
        </mxCell>
        <mxCell id="Iy1BZUjgXlwGKle0z2-z-179" value="Стоимость" style="text;strokeColor=none;fillColor=none;align=left;verticalAlign=middle;spacingLeft=4;spacingRight=4;overflow=hidden;points=[[0,0.5],[1,0.5]];portConstraint=eastwest;rotatable=0;whiteSpace=wrap;html=1;" vertex="1" parent="Iy1BZUjgXlwGKle0z2-z-155">
          <mxGeometry y="120" width="140" height="30" as="geometry" />
        </mxCell>
        <mxCell id="Iy1BZUjgXlwGKle0z2-z-160" style="edgeStyle=orthogonalEdgeStyle;rounded=0;orthogonalLoop=1;jettySize=auto;html=1;startArrow=ERzeroToMany;startFill=0;endArrow=ERone;endFill=0;" edge="1" parent="1" source="Iy1BZUjgXlwGKle0z2-z-141" target="Iy1BZUjgXlwGKle0z2-z-151">
          <mxGeometry relative="1" as="geometry">
            <mxPoint x="970" y="1110" as="sourcePoint" />
            <mxPoint x="810" y="1190" as="targetPoint" />
            <Array as="points">
              <mxPoint x="950" y="1120" />
              <mxPoint x="950" y="1165" />
            </Array>
          </mxGeometry>
        </mxCell>
        <mxCell id="Iy1BZUjgXlwGKle0z2-z-161" style="edgeStyle=orthogonalEdgeStyle;rounded=0;orthogonalLoop=1;jettySize=auto;html=1;startArrow=ERzeroToMany;startFill=0;endArrow=ERone;endFill=0;" edge="1" parent="1" source="Iy1BZUjgXlwGKle0z2-z-157" target="Iy1BZUjgXlwGKle0z2-z-151">
          <mxGeometry relative="1" as="geometry">
            <mxPoint x="1060" y="1030" as="sourcePoint" />
            <mxPoint x="900" y="1095" as="targetPoint" />
            <Array as="points">
              <mxPoint x="1140" y="1316" />
              <mxPoint x="1140" y="1160" />
            </Array>
          </mxGeometry>
        </mxCell>
        <mxCell id="Iy1BZUjgXlwGKle0z2-z-162" style="edgeStyle=orthogonalEdgeStyle;rounded=0;orthogonalLoop=1;jettySize=auto;html=1;startArrow=ERzeroToMany;startFill=0;endArrow=ERone;endFill=0;" edge="1" parent="1" source="Iy1BZUjgXlwGKle0z2-z-158" target="Iy1BZUjgXlwGKle0z2-z-151">
          <mxGeometry relative="1" as="geometry">
            <mxPoint x="1140" y="1456" as="sourcePoint" />
            <mxPoint x="1140" y="1300" as="targetPoint" />
            <Array as="points">
              <mxPoint x="1140" y="1346" />
              <mxPoint x="1140" y="1160" />
            </Array>
          </mxGeometry>
        </mxCell>
        <mxCell id="Iy1BZUjgXlwGKle0z2-z-163" value="Id" style="ellipse;whiteSpace=wrap;html=1;fontStyle=4" vertex="1" parent="1">
          <mxGeometry x="650" y="1410" width="120" height="40" as="geometry" />
        </mxCell>
        <mxCell id="Iy1BZUjgXlwGKle0z2-z-164" value="Адрес" style="ellipse;whiteSpace=wrap;html=1;fontStyle=0" vertex="1" parent="1">
          <mxGeometry x="650" y="1440" width="120" height="40" as="geometry" />
        </mxCell>
        <mxCell id="Iy1BZUjgXlwGKle0z2-z-165" value="" style="edgeStyle=orthogonalEdgeStyle;rounded=0;orthogonalLoop=1;jettySize=auto;html=1;endArrow=none;endFill=0;" edge="1" parent="1" source="Iy1BZUjgXlwGKle0z2-z-164">
          <mxGeometry relative="1" as="geometry">
            <Array as="points">
              <mxPoint x="600" y="1460" />
              <mxPoint x="600" y="1445" />
            </Array>
            <mxPoint x="570" y="1445" as="targetPoint" />
          </mxGeometry>
        </mxCell>
        <mxCell id="Iy1BZUjgXlwGKle0z2-z-166" value="" style="rounded=0;orthogonalLoop=1;jettySize=auto;html=1;endArrow=none;endFill=0;edgeStyle=orthogonalEdgeStyle;" edge="1" parent="1" source="Iy1BZUjgXlwGKle0z2-z-163">
          <mxGeometry relative="1" as="geometry">
            <mxPoint x="490" y="1400" as="sourcePoint" />
            <mxPoint x="570" y="1445" as="targetPoint" />
            <Array as="points">
              <mxPoint x="600" y="1430" />
              <mxPoint x="600" y="1445" />
            </Array>
          </mxGeometry>
        </mxCell>
        <mxCell id="Iy1BZUjgXlwGKle0z2-z-167" value="Id" style="ellipse;whiteSpace=wrap;html=1;fontStyle=4" vertex="1" parent="1">
          <mxGeometry x="550" y="1170" width="120" height="40" as="geometry" />
        </mxCell>
        <mxCell id="Iy1BZUjgXlwGKle0z2-z-170" value="" style="rounded=0;orthogonalLoop=1;jettySize=auto;html=1;endArrow=none;endFill=0;edgeStyle=orthogonalEdgeStyle;" edge="1" parent="1" source="Iy1BZUjgXlwGKle0z2-z-167">
          <mxGeometry relative="1" as="geometry">
            <mxPoint x="430" y="1140" as="sourcePoint" />
            <mxPoint x="510" y="1185" as="targetPoint" />
            <Array as="points">
              <mxPoint x="510" y="1190" />
            </Array>
          </mxGeometry>
        </mxCell>
        <mxCell id="Iy1BZUjgXlwGKle0z2-z-171" value="Id" style="ellipse;whiteSpace=wrap;html=1;fontStyle=4" vertex="1" parent="1">
          <mxGeometry x="360" y="1530" width="120" height="40" as="geometry" />
        </mxCell>
        <mxCell id="Iy1BZUjgXlwGKle0z2-z-172" value="Название" style="ellipse;whiteSpace=wrap;html=1;fontStyle=0" vertex="1" parent="1">
          <mxGeometry x="360" y="1560" width="120" height="40" as="geometry" />
        </mxCell>
        <mxCell id="Iy1BZUjgXlwGKle0z2-z-173" value="" style="edgeStyle=orthogonalEdgeStyle;rounded=0;orthogonalLoop=1;jettySize=auto;html=1;endArrow=none;endFill=0;" edge="1" parent="1" source="Iy1BZUjgXlwGKle0z2-z-172" target="Iy1BZUjgXlwGKle0z2-z-96">
          <mxGeometry relative="1" as="geometry">
            <Array as="points">
              <mxPoint x="305" y="1580" />
            </Array>
            <mxPoint x="280" y="1565" as="targetPoint" />
          </mxGeometry>
        </mxCell>
        <mxCell id="Iy1BZUjgXlwGKle0z2-z-174" value="" style="rounded=0;orthogonalLoop=1;jettySize=auto;html=1;endArrow=none;endFill=0;edgeStyle=orthogonalEdgeStyle;" edge="1" parent="1" source="Iy1BZUjgXlwGKle0z2-z-171" target="Iy1BZUjgXlwGKle0z2-z-96">
          <mxGeometry relative="1" as="geometry">
            <mxPoint x="200" y="1520" as="sourcePoint" />
            <mxPoint x="280" y="1565" as="targetPoint" />
            <Array as="points">
              <mxPoint x="305" y="1550" />
            </Array>
          </mxGeometry>
        </mxCell>
        <mxCell id="Iy1BZUjgXlwGKle0z2-z-175" value="Id" style="ellipse;whiteSpace=wrap;html=1;fontStyle=4" vertex="1" parent="1">
          <mxGeometry x="100" y="1550" width="120" height="40" as="geometry" />
        </mxCell>
        <mxCell id="Iy1BZUjgXlwGKle0z2-z-176" value="Стоимость" style="ellipse;whiteSpace=wrap;html=1;fontStyle=0" vertex="1" parent="1">
          <mxGeometry x="100" y="1580" width="120" height="40" as="geometry" />
        </mxCell>
        <mxCell id="Iy1BZUjgXlwGKle0z2-z-177" value="" style="edgeStyle=orthogonalEdgeStyle;rounded=0;orthogonalLoop=1;jettySize=auto;html=1;endArrow=none;endFill=0;" edge="1" parent="1" source="Iy1BZUjgXlwGKle0z2-z-176" target="Iy1BZUjgXlwGKle0z2-z-98">
          <mxGeometry relative="1" as="geometry">
            <Array as="points">
              <mxPoint x="50" y="1600" />
            </Array>
            <mxPoint x="20" y="1585" as="targetPoint" />
          </mxGeometry>
        </mxCell>
        <mxCell id="Iy1BZUjgXlwGKle0z2-z-178" value="" style="rounded=0;orthogonalLoop=1;jettySize=auto;html=1;endArrow=none;endFill=0;edgeStyle=orthogonalEdgeStyle;" edge="1" parent="1" source="Iy1BZUjgXlwGKle0z2-z-175" target="Iy1BZUjgXlwGKle0z2-z-98">
          <mxGeometry relative="1" as="geometry">
            <mxPoint x="-60" y="1540" as="sourcePoint" />
            <mxPoint x="20" y="1585" as="targetPoint" />
            <Array as="points">
              <mxPoint x="50" y="1570" />
            </Array>
          </mxGeometry>
        </mxCell>
      </root>
    </mxGraphModel>
  </diagram>
</mxfile>
